<?xml version="1.0" encoding="utf-8"?>
<!-- Generator: Adobe Illustrator 25.2.1, SVG Export Plug-In . SVG Version: 6.00 Build 0)  -->
<svg version="1.1" id="Layer_1" xmlns="http://www.w3.org/2000/svg" xmlns:xlink="http://www.w3.org/1999/xlink" x="0px" y="0px"
	 viewBox="0 0 56 49" style="enable-background:new 0 0 56 49;" xml:space="preserve">
<path d="M4.5,47.1c0-15,0-30.1,0-45.1C4.8,1.2,5,1,5.8,1c14.8,0,29.7,0,44.5,0c0.8,0,1.2,0.4,1.2,1.2c0,14.9,0,29.8,0,44.6
	c0,0.1,0,0.1,0,0.2c0,0.4-0.2,0.7-0.6,0.9c-0.1,0.1-0.2,0.1-0.3,0.1c-15,0-30.1,0-45.1,0c-0.1,0-0.2-0.1-0.3-0.1
	C4.7,47.7,4.6,47.4,4.5,47.1z M47.1,5.4c-0.1,0-0.2,0-0.3,0c-11,0-22,0-33,0c-0.4,0-0.7,0-1.1,0c-1.3,0.2-2.4,0.7-3.1,1.9
	C9.2,8.1,9,8.8,9,9.6c0,1.3,0,2.6,0,3.9C9,22,9,30.4,9,38.9c0,0,0,0,0,0.1c0,0.5,0.1,0.9,0.1,1.4c0.3,1.6,1.4,2.7,3,3
	c0.7,0.1,1.5,0.2,2.2,0.2c1.6,0,3.2,0,4.8,0c1.9,0,3.9,0,5.8,0c2,0,4.1,0,6.1,0c0.3,0,0.6,0,0.9-0.1c0-0.1,0-0.2,0-0.3
	c0-1.2,0-2.5,0-3.7c0-0.3,0-0.5,0-0.8c0-0.4-0.2-0.5-0.5-0.6c-0.1,0-0.2,0-0.3,0c-0.8,0-1.7,0-2.5,0c-2,0-4,0-6,0
	c-2.2,0-4.4,0-6.6,0c-0.2,0-0.4,0-0.6,0c-0.5-0.1-0.7-0.3-0.8-0.7c-0.1-0.3-0.1-0.6-0.1-0.9c0-2.1,0-4.1,0-6.2c0-5.7,0-11.5,0-17.2
	c0-0.3,0-0.5,0-0.8c0-0.6,0.3-0.9,0.9-1c0.2,0,0.4,0,0.6,0c6.3,0,12.5,0,18.8,0c3.6,0,7.2,0,10.9,0c0.2,0,0.4,0,0.6,0
	c0.4,0,0.6-0.3,0.6-0.6c0-1.6,0-3.1,0-4.7C47.1,5.7,47.1,5.6,47.1,5.4z M37.3,43.4c0.3,0,0.5,0,0.8,0c1.6,0,3.2,0,4.8,0
	c0.3,0,0.7,0,1-0.1c1.7-0.2,2.9-1.4,3-3.2c0.2-2.3,0.3-4.6,0.2-6.9c0-1-0.1-2-0.2-2.9c-0.2-1.7-1.2-2.7-2.8-3
	c-0.7-0.1-1.5-0.2-2.3-0.2c-2.2,0-4.4,0-6.6-0.1c-2.3,0-4.6,0-7,0c-0.6,0-1.1,0-1.7-0.1c-0.7-0.1-1.1-0.4-1.2-1.2c0-1,0-1.9,0-2.9
	c0-0.8,0.4-1,1.2-1.1c0.2,0,0.4,0,0.7,0c6.3,0,12.6,0,18.9,0c0.3,0,0.7,0,1-0.1c0-1.8,0-3.6,0-5.4c-0.2,0-0.5,0-0.7,0
	c-4.6,0-9.1,0-13.7,0c-3,0-6,0-9,0c-0.4,0-0.8,0.1-1.2,0.2C21,17,20,18.2,20,19.7c0,1.1-0.1,2.3-0.1,3.4c0,2,0.1,4,0.1,6.1
	c0,1,0.4,1.9,1.2,2.6c0.6,0.5,1.3,0.7,2.1,0.8c1.2,0.2,2.4,0.2,3.7,0.2c3.7,0,7.4,0,11.1,0c0.1,0,0.2,0,0.3,0c0.8,0,1.5,0,2.3,0
	c0.5,0,0.7,0.2,0.8,0.7c0,0.1,0,0.2,0,0.4c0,0.4,0,0.7,0,1.1c0,0.7,0,1.4,0,2.1c0,0.5-0.3,0.8-0.9,0.9c-0.2,0-0.4,0-0.6,0
	c-0.7,0-1.3,0-2,0c-0.4,0-0.6,0.2-0.6,0.6c0,1.5,0,3,0,4.5C37.3,43.2,37.3,43.3,37.3,43.4z"/>
</svg>
